<?xml version="1.0" encoding="UTF-8"?>
<svg version="1.1" xmlns="http://www.w3.org/2000/svg" width="512" height="512">
<path d="M0 0 C33.845625 -0.185625 33.845625 -0.185625 68.375 -0.375 C75.46790527 -0.42962402 82.56081055 -0.48424805 89.86865234 -0.54052734 C98.6105957 -0.56762695 98.6105957 -0.56762695 102.71865845 -0.57266235 C105.55399447 -0.57819445 108.38863872 -0.60044087 111.2237854 -0.63345337 C140.47047348 -0.9591938 140.47047348 -0.9591938 153.4425354 4.53109741 C166.04775117 9.7358812 179.92227771 10.23869245 193.375 10.25 C194.45263107 10.25101212 194.45263107 10.25101212 195.55203247 10.25204468 C212.8443522 10.22621976 230.39173974 8.11076153 246.3581953 0.94105721 C249.36378233 -0.12958565 251.69168365 -0.24626615 254.87825012 -0.24050903 C256.63925788 -0.24464152 256.63925788 -0.24464152 258.43584156 -0.2488575 C259.7200534 -0.24166128 261.00426523 -0.23446507 262.32739258 -0.22705078 C263.71971214 -0.2264378 265.11203233 -0.22670563 266.50435162 -0.2277813 C270.22725587 -0.22823214 273.95003111 -0.21665459 277.67290497 -0.20256042 C281.16845601 -0.1911564 284.66397593 -0.19063342 288.1595459 -0.18920898 C298.3772143 -0.17872133 308.59485879 -0.15079895 318.8125 -0.125 C341.644375 -0.08375 364.47625 -0.0425 388 0 C388 58.08 388 116.16 388 176 C354.67 176 321.34 176 287 176 C287 137.39 287 98.78 287 59 C258.95 59 230.9 59 202 59 C202 97.61 202 136.22 202 176 C196.72 176 191.44 176 186 176 C186 137.39 186 98.78 186 59 C157.95 59 129.9 59 101 59 C101 97.61 101 136.22 101 176 C67.67 176 34.34 176 0 176 C0 117.92 0 59.84 0 0 Z M89 27 C89 31.95 89 36.9 89 42 C158.3 42 227.6 42 299 42 C299 37.05 299 32.1 299 27 C229.7 27 160.4 27 89 27 Z M30.01879883 77.03027344 C28.39135944 80.17673425 28.5731967 83.38396857 28.6015625 86.84375 C28.59869232 87.60925171 28.59582214 88.37475342 28.59286499 89.16345215 C28.590825 90.78068787 28.59635037 92.3979483 28.60888672 94.01513672 C28.62494242 96.49112091 28.60903703 98.96547285 28.58984375 101.44140625 C28.59182619 103.01302444 28.5956699 104.58464161 28.6015625 106.15625 C28.59548981 106.89693726 28.58941711 107.63762451 28.5831604 108.40075684 C28.62120484 111.17998643 28.72531352 113.46467427 30.00732422 115.96313477 C33.27518518 117.6635275 36.68218011 117.44706277 40.28125 117.43359375 C41.4960907 117.44145653 41.4960907 117.44145653 42.73547363 117.44947815 C44.44684706 117.45589817 46.15826462 117.45456157 47.86962891 117.44604492 C50.49070589 117.43753019 53.10960692 117.46630122 55.73046875 117.49804688 C57.39322851 117.49965885 59.05599214 117.49908142 60.71875 117.49609375 C61.50318481 117.50732773 62.28761963 117.51856171 63.0958252 117.53013611 C66.29508475 117.48907192 68.4365415 117.44567767 70.99487305 115.42211914 C72.37391069 112.09896332 72.37156524 109.34659306 72.36328125 105.75 C72.36377975 105.05487305 72.36427826 104.35974609 72.36479187 103.64355469 C72.36245726 102.17770521 72.35276479 100.71185128 72.33618164 99.24609375 C72.31257851 97.00744633 72.31562613 94.76999038 72.32226562 92.53125 C72.72816903 84.39388395 72.72816903 84.39388395 70 77 C66.8564879 75.42824395 63.48756483 75.81598649 60.03515625 75.796875 C59.24604355 75.79117493 58.45693085 75.78547485 57.64390564 75.77960205 C55.97363629 75.77015075 54.30334829 75.76361755 52.63305664 75.75976562 C50.07600488 75.75005131 47.51975395 75.71902668 44.96289062 75.6875 C43.34115061 75.68097078 41.71940485 75.67571999 40.09765625 75.671875 C39.33195816 75.6595282 38.56626007 75.6471814 37.77735901 75.63446045 C34.92302067 75.64645677 32.58145678 75.69762814 30.01879883 77.03027344 Z M317 78 C315.22329991 83.33010028 315.77440052 89.09586419 315.75976562 94.6784668 C315.75004974 96.92599352 315.71901013 99.17260926 315.6875 101.41992188 C315.6809704 102.85155708 315.67571976 104.28319881 315.671875 105.71484375 C315.6625293 107.01542725 315.65318359 108.31601074 315.64355469 109.65600586 C315.83208533 112.91688077 315.83208533 112.91688077 317.00292969 115.42431641 C320.13609761 117.89637824 323.46052201 117.55081082 327.28125 117.49609375 C328.0911438 117.49754898 328.9010376 117.49900421 329.73547363 117.50050354 C331.44689534 117.49884439 333.15833193 117.48728112 334.86962891 117.46655273 C337.49055295 117.43760434 340.10945376 117.44594083 342.73046875 117.45898438 C344.39323901 117.45274668 346.05600287 117.4443555 347.71875 117.43359375 C348.50318481 117.43652939 349.28761963 117.43946503 350.0958252 117.44248962 C352.98755878 117.39230307 355.39712882 117.31369688 357.99267578 115.96313477 C359.60659709 112.81782666 359.42675307 109.60990372 359.3984375 106.15625 C359.40274277 105.00799744 359.40274277 105.00799744 359.40713501 103.83654785 C359.409175 102.21931213 359.40364963 100.6020517 359.39111328 98.98486328 C359.37505758 96.50887909 359.39096297 94.03452715 359.41015625 91.55859375 C359.40817381 89.98697556 359.4043301 88.41535839 359.3984375 86.84375 C359.40451019 86.10306274 359.41058289 85.36237549 359.4168396 84.59924316 C359.37868329 81.81184137 359.27650077 79.53283589 357.97900391 77.0324707 C354.77277257 75.35974034 351.4670561 75.59409092 347.9375 75.63671875 C347.14980225 75.63622025 346.36210449 75.63572174 345.55053711 75.63520813 C343.88620479 75.63754718 342.22186884 75.64726584 340.55761719 75.66381836 C338.00944401 75.68741256 335.46231716 75.68437814 332.9140625 75.67773438 C331.29686876 75.68331125 329.67967943 75.69042119 328.0625 75.69921875 C327.29993896 75.69830734 326.53737793 75.69739594 325.75170898 75.69645691 C321.97190586 75.74714239 320.22169461 75.85220359 317 78 Z " fill="#000000" transform="translate(62,276)"/>
<path d="M0 0 C22.03852652 18.81159856 36.46579334 41.06373377 44.3515625 68.91015625 C44.69316406 70.08835937 45.03476562 71.2665625 45.38671875 72.48046875 C53.19223238 105.51775901 45.91001797 141.66825981 28.29296875 170.25 C22.99943221 178.18558686 16.95453553 185.06006597 10.3515625 191.91015625 C9.69671875 192.62816406 9.041875 193.34617188 8.3671875 194.0859375 C2.46834135 200.37551918 -4.50960057 205.14485603 -11.6484375 209.91015625 C-12.58300781 210.54050781 -13.51757812 211.17085937 -14.48046875 211.8203125 C-42.05878225 229.14059809 -78.43828625 233.86928872 -110.02587891 226.74926758 C-133.76534405 220.75483718 -154.10776448 208.83406861 -171.6484375 191.91015625 C-172.45152344 191.17023438 -173.25460938 190.4303125 -174.08203125 189.66796875 C-180.32602405 183.75944177 -185.02134817 177.09364853 -189.6484375 169.91015625 C-190.25558594 168.99878906 -190.86273438 168.08742187 -191.48828125 167.1484375 C-208.85180554 139.54791476 -213.6325391 103.16532648 -206.48535156 71.52832031 C-204.51564482 63.73917646 -201.8786132 56.26056755 -198.6484375 48.91015625 C-198.36516602 48.25595703 -198.08189453 47.60175781 -197.79003906 46.92773438 C-184.50416539 16.83266141 -158.92687464 -6.87402964 -128.45214844 -18.9609375 C-123.25349867 -20.92030702 -117.99243399 -22.57648875 -112.6484375 -24.08984375 C-111.47023438 -24.43144531 -110.29203125 -24.77304687 -109.078125 -25.125 C-71.91216204 -33.90596927 -29.43835184 -24.14652242 0 0 Z M-61.6484375 4.91015625 C-62.99868174 7.61064473 -62.79800438 9.74155288 -62.82543945 12.76513672 C-62.83827469 13.99336151 -62.85110992 15.2215863 -62.86433411 16.48703003 C-62.87250091 17.83379718 -62.87994476 19.18056888 -62.88671875 20.52734375 C-62.89079428 21.20453587 -62.8948698 21.88172798 -62.89906883 22.57944107 C-62.91992568 26.16314641 -62.9342295 29.7468135 -62.94360352 33.33056641 C-62.95467269 37.03193737 -62.98907842 40.73270791 -63.02877522 44.4338665 C-63.05491887 47.28033568 -63.06329323 50.12666122 -63.06688499 52.9732399 C-63.07175619 54.33760767 -63.08338555 55.7019688 -63.10192299 57.06621933 C-63.12626343 58.97612794 -63.12293463 60.88632838 -63.1184082 62.79638672 C-63.12427444 63.8828952 -63.13014069 64.96940369 -63.13618469 66.08883667 C-62.52955172 69.59783785 -61.44216356 70.76638473 -58.6484375 72.91015625 C-54.85499297 73.63656052 -53.25321874 73.29675304 -49.99633789 71.21484375 C-45.84187373 66.79428404 -46.96056528 60.1251484 -47.01953125 54.47265625 C-47.01711929 53.15982666 -47.01470734 51.84699707 -47.01222229 50.49438477 C-47.00936919 47.72022416 -47.02401518 44.94687312 -47.05151367 42.17285156 C-47.08559776 38.62505454 -47.07957481 35.07870432 -47.0608511 31.53083801 C-47.04771361 28.13630143 -47.06600386 24.74218277 -47.08203125 21.34765625 C-47.07459145 19.44125366 -47.07459145 19.44125366 -47.06700134 17.49633789 C-47.08283768 16.31160889 -47.09867401 15.12687988 -47.11499023 13.90625 C-47.12118881 12.86654053 -47.12738739 11.82683105 -47.1337738 10.75561523 C-47.78028045 7.18122644 -49.14411873 5.49571557 -51.6484375 2.91015625 C-55.91793617 1.15856705 -58.05635466 2.21609412 -61.6484375 4.91015625 Z M-79.6484375 4.91015625 C-81.95534724 8.37052087 -81.90543462 9.70261769 -81.9230957 13.78344727 C-81.93262772 14.99223038 -81.94215973 16.20101349 -81.95198059 17.44642639 C-81.95106918 18.75574631 -81.95015778 20.06506622 -81.94921875 21.4140625 C-81.9531086 22.77587514 -81.95744387 24.13768658 -81.96220398 25.49949646 C-81.96966985 28.35850953 -81.96937469 31.21739918 -81.96411133 34.07641602 C-81.95835066 37.71544063 -81.97516228 41.35395062 -81.998456 44.99289036 C-82.01330181 47.80959461 -82.01404986 50.6261785 -82.01094627 53.44291496 C-82.0117007 55.42905297 -82.02550411 57.41517244 -82.03962708 59.40126038 C-81.97653393 71.86886408 -79.72013511 80.58945521 -70.984375 89.6328125 C-66.33152319 93.95635288 -61.16967619 96.91015625 -54.6484375 96.91015625 C-54.71107788 97.8186734 -54.77371826 98.72719055 -54.83825684 99.66323853 C-55.43166246 108.28221974 -56.02043927 116.90150255 -56.60419464 125.52114296 C-56.90436901 129.95111966 -57.20624701 134.38096571 -57.51220703 138.81054688 C-57.80815695 143.09616261 -58.0993855 147.38207682 -58.38752747 151.66822433 C-58.49750859 153.29234339 -58.60910749 154.91635385 -58.72245789 156.54024124 C-61.14633581 173.69027957 -61.14633581 173.69027957 -57.8984375 189.59765625 C-56.7846875 190.74234375 -56.7846875 190.74234375 -55.6484375 191.91015625 C-55.0709375 192.50828125 -54.4934375 193.10640625 -53.8984375 193.72265625 C-49.02445136 196.29503782 -45.01685983 196.32068295 -39.8984375 194.78515625 C-35.49034789 192.24202763 -33.25583003 189.73233384 -31.6484375 184.91015625 C-31.03913879 175.4812949 -32.0720276 165.91170074 -32.70703125 156.5 C-32.81692998 154.83900711 -32.92663218 153.17800121 -33.03614807 151.51698303 C-33.26493728 148.06006614 -33.4963959 144.60334108 -33.72973633 141.14672852 C-34.02885472 136.71178621 -34.32070288 132.276399 -34.61054897 127.84084225 C-34.83482412 124.42209839 -35.06312903 121.00363281 -35.29265022 117.5852375 C-35.40200162 115.94861059 -35.51003329 114.31189496 -35.61672783 112.6750927 C-35.76565642 110.39889825 -35.92005551 108.12314013 -36.07592773 105.84741211 C-36.16253159 104.55266464 -36.24913544 103.25791718 -36.33836365 101.92393494 C-36.4607597 98.99107439 -36.4607597 98.99107439 -37.6484375 96.91015625 C-36.6996875 96.86890625 -35.7509375 96.82765625 -34.7734375 96.78515625 C-27.2685504 95.68910783 -20.49289575 90.71090178 -15.89453125 84.8359375 C-11.41670294 77.91565739 -9.54118867 71.11905057 -9.48730469 62.9140625 C-9.47769714 61.7293335 -9.4680896 60.54460449 -9.45819092 59.32397461 C-9.45394104 58.05303955 -9.44969116 56.78210449 -9.4453125 55.47265625 C-9.43961243 54.15982666 -9.43391235 52.84699707 -9.42803955 51.49438477 C-9.41756251 48.72053645 -9.41169758 45.94671685 -9.40820312 43.17285156 C-9.40270943 39.62534636 -9.37864938 36.07822321 -9.35023117 32.53083801 C-9.32709689 29.1364514 -9.32515578 25.74211761 -9.3203125 22.34765625 C-9.3017923 20.44125366 -9.3017923 20.44125366 -9.28289795 18.49633789 C-9.28589905 17.31160889 -9.28890015 16.12687988 -9.29199219 14.90625 C-9.28834656 13.86654053 -9.28470093 12.82683105 -9.28094482 11.75561523 C-9.70954989 8.43696914 -10.65486982 6.5792097 -12.6484375 3.91015625 C-15.45739813 2.25156025 -15.45739813 2.25156025 -18.6484375 1.91015625 C-21.59294644 3.21882689 -23.19545181 4.00418488 -24.6484375 6.91015625 C-24.74811193 8.83866237 -24.78402038 10.77059008 -24.7902832 12.70166016 C-24.79731766 13.91697418 -24.80435211 15.13228821 -24.81159973 16.38442993 C-24.81432357 17.36196165 -24.81432357 17.36196165 -24.81710243 18.35924149 C-24.82427661 20.40320294 -24.8399529 22.44692551 -24.85844421 24.49081421 C-24.91084805 30.30292346 -24.95881902 36.11490603 -24.97436523 41.92724609 C-24.98449902 45.48301833 -25.01396418 49.03819497 -25.05568504 52.59373093 C-25.07385368 54.59647717 -25.0713565 56.59937684 -25.06843567 58.60220337 C-25.16486516 65.81925135 -25.63435907 70.82777757 -29.6484375 76.91015625 C-36.73391759 82.66710882 -43.8080399 82.49303961 -52.6484375 81.91015625 C-58.35341719 80.73119372 -61.39284218 77.50629082 -64.6484375 72.91015625 C-65.73282567 69.65699175 -65.77945981 67.27300585 -65.7902832 63.84985352 C-65.79731766 62.6016835 -65.80435211 61.35351349 -65.81159973 60.06752014 C-65.81341562 59.40104021 -65.81523151 58.73456028 -65.81710243 58.04788399 C-65.82427999 55.95873669 -65.83995498 53.86982262 -65.85844421 51.78074646 C-65.91086013 45.8417374 -65.95890351 39.90285858 -65.97436523 33.96362305 C-65.98444744 30.32891261 -66.01377306 26.69479304 -66.05568504 23.06031609 C-66.06799326 21.67649746 -66.0731166 20.2925954 -66.07088661 18.90872383 C-66.06853365 16.97237036 -66.09289157 15.03604028 -66.1184082 13.09985352 C-66.12720757 11.44796776 -66.12720757 11.44796776 -66.13618469 9.76271057 C-66.76522986 6.25978101 -67.90798242 5.10431074 -70.6484375 2.91015625 C-74.44409211 1.07354918 -76.41409035 2.52695309 -79.6484375 4.91015625 Z M-41.6484375 4.91015625 C-43.93713291 8.34319936 -43.90945221 9.63705983 -43.93896484 13.67919922 C-43.95172455 14.86407928 -43.96448425 16.04895935 -43.97763062 17.26974487 C-43.97985626 18.5510025 -43.98208191 19.83226013 -43.984375 21.15234375 C-43.9910318 22.46800323 -43.9976886 23.78366272 -44.00454712 25.13919067 C-44.01652075 27.92502116 -44.02022792 30.71072763 -44.01904297 33.49658203 C-44.01883988 37.06000059 -44.04612975 40.6226207 -44.08058739 44.18585014 C-44.1082252 47.59135992 -44.10700621 50.99672327 -44.109375 54.40234375 C-44.12374603 55.67955292 -44.13811707 56.95676208 -44.15292358 58.27267456 C-44.14677032 59.46385895 -44.14061707 60.65504333 -44.13427734 61.88232422 C-44.13712738 62.9280661 -44.13997742 63.97380798 -44.14291382 65.05123901 C-43.51660596 68.67236757 -42.24352264 70.34597661 -39.6484375 72.91015625 C-36.1484375 73.74348958 -36.1484375 73.74348958 -32.6484375 72.91015625 C-30.0400514 70.33615713 -28.77927568 68.6546266 -28.14050293 65.02000427 C-28.13732056 63.9595137 -28.13413818 62.89902313 -28.13085938 61.80639648 C-28.11825073 60.59841904 -28.10564209 59.39044159 -28.09265137 58.14585876 C-28.10074829 56.84991287 -28.10884521 55.55396698 -28.1171875 54.21875 C-28.11449079 52.86784079 -28.11060687 51.51693347 -28.10559082 50.16603088 C-28.09970604 47.34072308 -28.10822611 44.51592249 -28.12695312 41.69067383 C-28.14976523 38.07332558 -28.13660072 34.45716303 -28.11266327 30.83985806 C-28.09819563 28.05250645 -28.10281505 25.26543516 -28.11317444 22.47807503 C-28.11713066 20.49721122 -28.10500806 18.51633642 -28.09265137 16.5355072 C-28.10526001 15.33068192 -28.11786865 14.12585663 -28.13085938 12.88452148 C-28.13404175 11.82482651 -28.13722412 10.76513153 -28.14050293 9.67332458 C-28.77263577 6.23451661 -29.96432771 5.07569135 -32.6484375 2.91015625 C-36.44409211 1.07354918 -38.41409035 2.52695309 -41.6484375 4.91015625 Z M-144.89453125 18.39453125 C-152.48998545 29.28867936 -155.02799569 42.16050548 -153.18359375 55.1953125 C-150.85064777 67.88156903 -146.22481433 77.2374756 -135.6484375 84.91015625 C-134.32271089 85.59182419 -132.99036676 86.26096592 -131.6484375 86.91015625 C-131.7645211 88.6245137 -131.7645211 88.6245137 -131.88294983 90.37350464 C-132.61301776 101.17147337 -133.33432006 111.9699971 -134.04715824 122.76911736 C-134.41386823 128.32034048 -134.78360796 133.87132638 -135.16040039 139.421875 C-135.52426103 144.78360526 -135.87999489 150.14581979 -136.2302227 155.50845718 C-136.36490112 157.54904398 -136.50245191 159.58944339 -136.64299202 161.62963486 C-136.84011618 164.49856963 -137.02679352 167.36801524 -137.21118164 170.23779297 C-137.27088135 171.07145889 -137.33058105 171.90512482 -137.39208984 172.76405334 C-138.09261895 183.18068506 -138.09261895 183.18068506 -134.9609375 192.84765625 C-131.21513602 196.18850622 -128.16542974 197.74762137 -123.1484375 198.28515625 C-117.80531886 197.71267925 -114.83892001 196.06224779 -110.99255371 192.33992004 C-107.86897362 188.46600677 -108.036731 184.96493464 -108.26757812 180.15893555 C-108.28833656 179.3252756 -108.309095 178.49161566 -108.33048248 177.63269329 C-108.40518668 175.05618167 -108.52007972 172.48450971 -108.6484375 169.91015625 C-108.68363495 169.14699223 -108.7188324 168.3838282 -108.75509644 167.59753799 C-109.00716265 162.36900686 -109.36568852 157.15049478 -109.7421875 151.9296875 C-109.8549325 150.2945338 -109.96701902 148.65933459 -110.07849121 147.02409363 C-110.36890817 142.78389505 -110.66648872 138.54423473 -110.96624756 134.3046875 C-111.44747489 127.48464032 -111.91861439 120.66389607 -112.38752747 113.84299278 C-112.5509833 111.48316532 -112.71828392 109.12363464 -112.8861084 106.76411438 C-112.98733512 105.30995448 -113.08845566 103.85578717 -113.18945312 102.40161133 C-113.27827759 101.14431717 -113.36710205 99.88702301 -113.45861816 98.59162903 C-113.6611876 94.66287301 -113.7979067 90.84249668 -113.6484375 86.91015625 C-111.890625 85.09765625 -111.890625 85.09765625 -109.5234375 83.91015625 C-100.19971525 78.44452597 -96.01195451 69.18563405 -93.10205078 58.99707031 C-90.33401698 46.26232706 -92.51535796 32.56201524 -99.1484375 21.47265625 C-99.96737201 20.27518101 -100.79925288 19.08637314 -101.6484375 17.91015625 C-102.2465625 17.02328125 -102.8446875 16.13640625 -103.4609375 15.22265625 C-108.65448167 9.73233813 -114.66850341 6.79083198 -122.2109375 6.53515625 C-132.09561873 6.66631607 -138.71172862 10.85026299 -144.89453125 18.39453125 Z " fill="#000000" transform="translate(336.6484375,43.08984375)"/>
<path d="M0 0 C1.25117849 0.00037972 2.50235698 0.00075944 3.79144996 0.00115067 C4.83659567 -0.0005801 4.83659567 -0.0005801 5.90285543 -0.00234583 C8.26706462 -0.0050192 10.63120742 -0.00048447 12.99541324 0.00394398 C14.69569421 0.00350842 16.39597512 0.00263381 18.09625566 0.00135481 C22.79145321 -0.00089324 27.48662817 0.00313535 32.18182284 0.00813287 C37.23638555 0.01243277 42.29094688 0.01099128 47.3455109 0.0102306 C56.11050893 0.00970507 64.87549955 0.01285488 73.64049572 0.01846844 C86.31336517 0.02657954 98.98623102 0.02919826 111.65910279 0.03045643 C132.21769574 0.03264757 152.77628473 0.03930931 173.33487552 0.04875904 C193.3111123 0.05793157 213.28734801 0.06501318 233.26358646 0.06926686 C234.49396592 0.06952958 235.72434537 0.0697923 236.99200905 0.07006299 C243.16417577 0.07136798 249.33634249 0.0726317 255.50850922 0.07387489 C306.75035736 0.08424942 357.99220121 0.1018694 409.23404545 0.1241985 C410.03573219 2.03233904 410.83579112 3.94116355 411.63516849 5.85027272 C412.30373119 7.44462651 412.30373119 7.44462651 412.98580021 9.07118946 C414.49472483 12.76177874 415.80114228 16.4615914 417.04654545 20.2491985 C417.26246341 20.89372975 417.47838138 21.538261 417.70084232 22.2023235 C419.23404545 26.8554733 419.23404545 26.8554733 419.23404545 29.1241985 C276.67404545 29.1241985 134.11404545 29.1241985 -12.76595455 29.1241985 C-10.89860947 22.27726653 -9.02939209 15.64841655 -6.64095455 8.9991985 C-6.37669674 8.246386 -6.11243893 7.4935735 -5.8401733 6.7179485 C-3.50730158 0.15748689 -3.50730158 0.15748689 0 0 Z " fill="#000000" transform="translate(52.76595455408096,466.8758015036583)"/>
<path d="M0 0 C8.91001927 -0.11593167 17.81977831 -0.20473378 26.73038769 -0.25906086 C30.86813718 -0.28513747 35.00537008 -0.32049885 39.14282227 -0.37719727 C43.13695146 -0.4315881 47.13058431 -0.46143511 51.12505531 -0.47438622 C52.6477267 -0.48361359 54.17037139 -0.50163316 55.69283104 -0.52865028 C57.82861043 -0.56503836 59.96234839 -0.56994183 62.09838867 -0.56762695 C63.3130632 -0.57873001 64.52773773 -0.58983307 65.77922058 -0.60127258 C69.98646145 0.18415798 71.44609629 1.61468562 74 5 C74.62818909 7.54847717 74.62818909 7.54847717 74.63110352 10.27758789 C74.64363663 11.30537857 74.65616974 12.33316925 74.66908264 13.3921051 C74.65582443 14.49118698 74.64256622 15.59026886 74.62890625 16.72265625 C74.63131821 17.86028915 74.63373016 18.99792206 74.63621521 20.17002869 C74.63523696 22.57147717 74.62184879 24.97294825 74.59692383 27.37426758 C74.56258845 31.0530234 74.57627489 34.72938106 74.59570312 38.40820312 C74.58880555 40.74219774 74.57913397 43.07618615 74.56640625 45.41015625 C74.57384605 47.06181541 74.57384605 47.06181541 74.58143616 48.74684143 C74.56559982 49.77147995 74.54976349 50.79611847 74.53344727 51.85180664 C74.52724869 52.75161758 74.52105011 53.65142853 74.5146637 54.57850647 C73.83941007 57.75557588 72.46152679 58.95144816 70 61 C67.57905534 62.21047233 66.06055681 62.12317555 63.35568237 62.12025452 C62.37689117 62.12162918 61.39809998 62.12300385 60.38964844 62.12442017 C58.77340576 62.11902725 58.77340576 62.11902725 57.12451172 62.11352539 C55.42695236 62.11374443 55.42695236 62.11374443 53.69509888 62.1139679 C49.93994251 62.11326907 46.18483524 62.10547807 42.4296875 62.09765625 C39.83179756 62.09579196 37.23390726 62.09436811 34.63601685 62.09336853 C28.48786217 62.08993546 22.33972787 62.0820473 16.19158089 62.07201904 C9.19287932 62.06085067 2.19417692 62.05534562 -4.80453134 62.05032361 C-19.20303042 62.0398645 -33.60151458 62.02226956 -48 62 C-42.55620472 56.54094048 -42.55620472 56.54094048 -40.01953125 54.2734375 C-27.88436572 43.41358907 -27.88436572 43.41358907 -17.84765625 30.6796875 C-16.93306641 29.35324219 -16.93306641 29.35324219 -16 28 C-15.34 28 -14.68 28 -14 28 C-13.8453125 29.3921875 -13.8453125 29.3921875 -13.6875 30.8125 C-12.96377109 34.1679704 -12.65267665 34.9973803 -10 37 C-7.74647108 37.46022011 -7.74647108 37.46022011 -5.20898438 37.40405273 C-4.2378772 37.41673691 -3.26677002 37.42942108 -2.26623535 37.44248962 C-1.21931519 37.43955399 -0.17239502 37.43661835 0.90625 37.43359375 C1.98249634 37.4388356 3.05874268 37.44407745 4.16760254 37.44947815 C6.44392025 37.45590394 8.72027115 37.4545542 10.99658203 37.44604492 C14.4866014 37.43753268 17.97498609 37.46629404 21.46484375 37.49804688 C23.67447867 37.49965883 25.88411651 37.49908147 28.09375 37.49609375 C29.14067017 37.50732773 30.18759033 37.51856171 31.26623535 37.53013611 C32.23734253 37.52075516 33.20844971 37.51137421 34.20898438 37.50170898 C35.06375366 37.50154282 35.91852295 37.50137665 36.79919434 37.50120544 C39.15534604 37.17332112 39.15534604 37.17332112 40.80334473 35.16004944 C42.25579641 32.9649033 42.25579641 32.9649033 41.9375 29.9375 C40.84249427 26.50648206 40.02638028 25.82165867 37 24 C34.81548515 23.56492371 34.81548515 23.56492371 32.47851562 23.64355469 C31.59079468 23.64055359 30.70307373 23.63755249 29.78845215 23.63446045 C28.36176208 23.65298065 28.36176208 23.65298065 26.90625 23.671875 C25.92257446 23.67374817 24.93889893 23.67562134 23.92541504 23.67755127 C21.84754034 23.68426792 19.76967821 23.6981747 17.69189453 23.71875 C14.51192463 23.74988325 11.33245092 23.75972042 8.15234375 23.765625 C6.13280646 23.77479634 4.11327421 23.78517253 2.09375 23.796875 C1.14262329 23.80112488 0.19149658 23.80537476 -0.78845215 23.80975342 C-1.6761731 23.81936096 -2.56389404 23.82896851 -3.47851562 23.83886719 C-4.25698853 23.84569519 -5.03546143 23.85252319 -5.83752441 23.85955811 C-8.00289871 24.00018826 -9.91727092 24.40585449 -12 25 C-10.68671698 20.6027887 -8.95226602 16.97349342 -6.5625 13.0625 C-4.61674139 9.87280067 -2.83729622 6.74723488 -1.39038086 3.30639648 C-0.70214233 1.66973022 -0.70214233 1.66973022 0 0 Z " fill="#000000" transform="translate(388,199)"/>
<path d="M0 0 C1.01058975 -0.0010952 1.01058975 -0.0010952 2.04159546 -0.00221252 C4.25537312 0.0012546 6.4670127 0.04006723 8.68041992 0.0793457 C10.2202591 0.08867711 11.76011317 0.09579168 13.29997253 0.1007843 C17.34289907 0.11982876 21.38492019 0.16890602 25.42749023 0.2243042 C29.55659742 0.2755527 33.68585165 0.2983102 37.81518555 0.32348633 C45.91000101 0.37702859 54.00408205 0.46230883 62.09838867 0.56762695 C62.8950293 2.17831055 62.8950293 2.17831055 63.70776367 3.8215332 C64.42119612 5.25778538 65.13474396 6.69398024 65.84838867 8.13012695 C66.19643555 8.83459961 66.54448242 9.53907227 66.90307617 10.26489258 C68.63582715 13.74643853 70.41898169 17.13819322 72.42651367 20.4699707 C72.97823242 21.49219727 73.52995117 22.51442383 74.09838867 23.56762695 C73.76838867 24.22762695 73.43838867 24.88762695 73.09838867 25.56762695 C71.61338867 25.07262695 71.61338867 25.07262695 70.09838867 24.56762695 C68.63711861 24.45714276 67.17153936 24.39898647 65.70629883 24.37475586 C64.82173004 24.35869293 63.93716125 24.34263 63.02578735 24.32608032 C58.99075194 24.28152845 54.95587809 24.24058416 50.9206543 24.2175293 C48.79261348 24.20095476 46.66462867 24.1736452 44.53686523 24.13549805 C41.46593401 24.08074501 38.39630467 24.05885967 35.32495117 24.04418945 C34.37584869 24.02152008 33.42674622 23.99885071 32.44888306 23.97549438 C27.83652798 23.99025 25.75665938 24.07890927 21.95532227 26.90112305 C19.78411798 29.46220665 19.78411798 29.46220665 20.16088867 32.75512695 C20.89807425 35.66545493 20.89807425 35.66545493 23.09838867 37.56762695 C25.25894592 37.88025798 25.25894592 37.88025798 27.77587891 37.84228516 C28.74706161 37.85181717 29.71824432 37.86134918 30.71885681 37.87117004 C31.77093826 37.87025864 32.82301971 37.86934723 33.90698242 37.8684082 C34.98464371 37.87269333 36.06230499 37.87697845 37.17262268 37.88139343 C39.45491838 37.88714421 41.73723241 37.88763152 44.01953125 37.88330078 C47.51813949 37.88014297 51.01590085 37.90358397 54.5144043 37.92895508 C56.72859593 37.93122814 58.94278985 37.93193154 61.15698242 37.9309082 C62.20703964 37.94011795 63.25709686 37.9493277 64.338974 37.95881653 C65.8004763 37.94947334 65.8004763 37.94947334 67.29150391 37.93994141 C68.57818214 37.94088554 68.57818214 37.94088554 69.89085388 37.94184875 C72.60674012 37.4814511 73.47223794 36.76099638 75.09838867 34.56762695 C75.82531127 31.45923674 75.82531127 31.45923674 76.09838867 28.56762695 C76.75838867 28.56762695 77.41838867 28.56762695 78.09838867 28.56762695 C79.28979492 29.96606445 79.28979492 29.96606445 80.66088867 31.94262695 C84.44484194 37.15709914 88.70771493 41.86002078 93.09838867 46.56762695 C93.68620117 47.19797852 94.27401367 47.82833008 94.87963867 48.4777832 C98.98602027 52.72943774 103.48066924 56.35603431 108.15698242 59.96606445 C108.79764648 60.49458008 109.43831055 61.0230957 110.09838867 61.56762695 C110.09838867 61.89762695 110.09838867 62.22762695 110.09838867 62.56762695 C95.06025906 62.63772885 80.02214212 62.6906209 64.98388386 62.72306347 C58.00124459 62.73852797 51.01870689 62.7596094 44.03613281 62.79394531 C37.2993702 62.82705667 30.56273498 62.84447336 23.82588768 62.85225868 C21.25383021 62.85780788 18.68177861 62.86864388 16.10976601 62.88481712 C12.51120068 62.90654848 8.91307336 62.9095956 5.31445312 62.90820312 C4.24774384 62.91898895 3.18103455 62.92977478 2.08200073 62.94088745 C-7.03050959 62.90265432 -7.03050959 62.90265432 -10.90161133 59.56762695 C-12.13679129 57.09726703 -12.05517989 55.40995699 -12.09448242 52.64648438 C-12.11054535 51.62169479 -12.12660828 50.59690521 -12.14315796 49.5410614 C-12.18755576 44.8522503 -12.22867041 40.16358144 -12.25170898 35.47460938 C-12.26827523 33.00022989 -12.29557365 30.52589839 -12.33374023 28.05175781 C-12.38844984 24.48778406 -12.41037476 20.92493258 -12.42504883 17.3605957 C-12.4477182 16.25523972 -12.47038757 15.14988373 -12.4937439 14.0110321 C-12.49089386 12.97678604 -12.48804382 11.94253998 -12.48510742 10.87695312 C-12.4972377 9.51699471 -12.4972377 9.51699471 -12.50961304 8.12956238 C-10.92131985 1.43697498 -6.2744227 -0.05735304 0 0 Z " fill="#000000" transform="translate(61.901611328125,198.432373046875)"/>
<path d="M0 0 C3.44488255 0.09412247 4.20416367 0.44930344 7.1875 2.5625 C9.58045788 6.00237695 9.57718713 7.32792841 9.1875 11.4375 C8.01342773 14.23901367 8.01342773 14.23901367 6.37109375 17.10546875 C5.77103516 18.16443359 5.17097656 19.22339844 4.55273438 20.31445312 C3.91658203 21.40693359 3.28042969 22.49941406 2.625 23.625 C2.01591797 24.69814453 1.40683594 25.77128906 0.77929688 26.87695312 C-10.45910466 46.53523644 -10.45910466 46.53523644 -14.8125 49.4375 C-18.51735832 49.92074239 -20.33842056 49.70087747 -23.625 47.875 C-25.80071858 45.45062787 -26.70112803 43.90668655 -27.0690918 40.67407227 C-26.45904021 35.35658172 -22.99575709 30.70073843 -20.3125 26.1875 C-19.69890625 25.11886719 -19.0853125 24.05023438 -18.453125 22.94921875 C-5.54817944 0.63667633 -5.54817944 0.63667633 0 0 Z " fill="#000000" transform="translate(222.8125,373.5625)"/>
<path d="M0 0 C1.17369141 -0.02513672 1.17369141 -0.02513672 2.37109375 -0.05078125 C5.08223066 0.39865856 5.90646741 1.1566283 7.5625 3.3125 C8.86296444 6.9843996 9.11744946 8.95777042 7.6328125 12.58203125 C6.02248996 15.54338711 4.29390296 18.42011754 2.5625 21.3125 C0.85637521 24.36475445 -0.81905392 27.43382111 -2.5 30.5 C-4.12166764 33.45181024 -5.76447028 36.3894828 -7.4375 39.3125 C-7.86015137 40.05838379 -8.28280273 40.80426758 -8.71826172 41.57275391 C-9.13994629 42.28737793 -9.56163086 43.00200195 -9.99609375 43.73828125 C-10.36919678 44.37805908 -10.7422998 45.01783691 -11.12670898 45.67700195 C-12.72379055 47.66970998 -14.05445514 48.42128684 -16.4375 49.3125 C-20.58219235 49.23848764 -22.71518325 48.90841132 -25.9375 46.25 C-27.94968746 42.30946623 -27.61531597 39.44401207 -26.4375 35.3125 C-24.47489371 31.16868937 -22.1353101 27.28729761 -19.75 23.375 C-19.13705078 22.34181641 -18.52410156 21.30863281 -17.89257812 20.24414062 C-5.81962652 0.02866811 -5.81962652 0.02866811 0 0 Z " fill="#000000" transform="translate(307.4375,363.6875)"/>
<path d="M0 0 C2.5 1.5 2.5 1.5 4 4 C5.37249997 11.89657519 1.41881707 17.55570678 -2.50634766 24.12695312 C-3.6168675 25.98638312 -4.70294943 27.85835299 -5.78515625 29.734375 C-16.02255481 47.3408516 -16.02255481 47.3408516 -21.5625 49.1875 C-25.33208339 48.98188636 -27.06593843 48.32999007 -30 46 C-31.55268449 42.89463102 -31.65588342 40.34246887 -31 37 C-29.12418738 32.73547509 -26.79336914 28.76476383 -24.4375 24.75 C-23.82841797 23.68136719 -23.21933594 22.61273438 -22.59179688 21.51171875 C-9.49792598 -1.29517172 -9.49792598 -1.29517172 0 0 Z " fill="#000000" transform="translate(210,364)"/>
<path d="M0 0 C2.5 1.5 2.5 1.5 4 4 C5.33941507 12.3179617 1.0691746 18.04021707 -3.125 24.9375 C-3.79015625 26.06607422 -4.4553125 27.19464844 -5.140625 28.35742188 C-15.68061989 46.12041326 -15.68061989 46.12041326 -20 49 C-24.03621805 49.61420709 -25.52111041 49.34355123 -28.875 46.9375 C-31.61537637 43.14933266 -31.51854594 41.62987443 -31 37 C-29.6650686 33.68196455 -27.92497628 30.64813092 -26.125 27.5625 C-25.63265869 26.69520264 -25.14031738 25.82790527 -24.63305664 24.93432617 C-21.33289231 19.16892801 -17.92626977 13.46565936 -14.4375 7.8125 C-14.02064941 7.13582275 -13.60379883 6.45914551 -13.17431641 5.76196289 C-9.57322767 0.05439395 -6.72778364 -0.91742504 0 0 Z " fill="#000000" transform="translate(329,374)"/>
<path d="M0 0 C2.625 1.5 2.625 1.5 4 4 C4.53678345 6.78670559 4.56590554 9.21620204 4 12 C1.97919868 14.91893524 0.81567087 15.81566079 -2.64453125 16.59765625 C-3.81048828 16.79681641 -3.81048828 16.79681641 -5 17 C-5.17015625 18.04800781 -5.3403125 19.09601563 -5.515625 20.17578125 C-5.75954064 21.55484273 -6.00438084 22.93374091 -6.25 24.3125 C-6.41435547 25.34793945 -6.41435547 25.34793945 -6.58203125 26.40429688 C-7.16129905 29.55978201 -7.62884787 31.6181342 -9.89453125 33.94921875 C-13.14470221 35.57128923 -15.42695155 35.50148048 -19 35 C-21.9375 33.125 -21.9375 33.125 -24 30 C-25.505375 22.65799563 -23.26934288 15.55874309 -20 9 C-14.76320457 1.18681324 -9.39267479 -1.21699109 0 0 Z " fill="#000000" transform="translate(218,64)"/>
</svg>
